<svg xmlns="http://www.w3.org/2000/svg" width="127.6" height="127.5" viewBox="0 0 127.6 127.5">
  <g id="Filled_outline" transform="translate(-7.1 -7.1)">
    <path id="Trazado_14" d="M111.3,70.9V83.7H85.8V70.9A4.225,4.225,0,0,0,90,66.7h0V62.4h17v4.2a4.268,4.268,0,0,0,4.3,4.3Z" fill="#f6e8db"/>
    <path id="Trazado_15" d="M107.3,68.3a20.138,20.138,0,0,1-18.2.8,4.376,4.376,0,0,0,.8-2.5V62.4h17v4.2A10.46,10.46,0,0,0,107.3,68.3Z" fill="rgba(0,0,0,0.08)"/>
    <path id="Trazado_16" d="M67.7,78.9,62.4,92.1h17V124h38.3V92.1h14.9V83.6a12.825,12.825,0,0,0-12.8-12.8h-8.5L108.9,74a13.277,13.277,0,0,1-18.6,2.7A12.8,12.8,0,0,1,86.4,72l-.6-1.1H79.6A12.757,12.757,0,0,0,67.7,78.9Z" fill="#edb7af"/>
    <path id="Trazado_17" d="M66.6,124h-17L62.4,92.1h17Z" fill="#f6e8db"/>
    <path id="Trazado_18" d="M117.6,49.6h-4.2V36.8h4.2a6.445,6.445,0,0,1,6.4,6.4A6.38,6.38,0,0,1,117.6,49.6Z" fill="#f6e8db"/>
    <path id="Trazado_19" d="M77.2,36.8h4.3V49.6H77.2a6.4,6.4,0,1,1,0-12.8Z" fill="#f6e8db"/>
    <path id="Trazado_20" d="M90,19.8h14.9a12.825,12.825,0,0,1,12.8,12.8V46.4a20.2,20.2,0,1,1-40.4,0V32.6A12.739,12.739,0,0,1,90,19.8Z" fill="#f6e8db"/>
    <path id="Trazado_21" d="M117.6,36.8,113,35.2A11.834,11.834,0,0,1,104.9,24V13.5a12.825,12.825,0,0,1,12.8,12.8h0Z" fill="#a9ddf6"/>
    <path id="Trazado_22" d="M104.9,13.5V24.1a48.3,48.3,0,0,1-13.4,6.3,52.34,52.34,0,0,1-14.7,2.2H73V26.2a16.986,16.986,0,0,1,17-17h8A7.79,7.79,0,0,1,104.9,13.5Z" fill="#a9ddf6"/>
    <path id="Trazado_23" d="M9.2,124H132.5v8.5H9.2Z" fill="#edb7af"/>
    <path id="Rectángulo_1" d="M15.6,56H75.1a6.445,6.445,0,0,1,6.4,6.4v38.3a6.445,6.445,0,0,1-6.4,6.4H15.6a6.445,6.445,0,0,1-6.4-6.4V62.4A6.38,6.38,0,0,1,15.6,56Z" fill="#f6e8db"/>
    <path id="Trazado_24" d="M45.3,107h8.5L51.7,94.2H45.3Z" fill="#cececc"/>
    <path id="Trazado_25" d="M32.6,115.5H58.1V124H32.6Z" fill="#d5d5d3"/>
    <path id="Trazado_26" d="M45.3,124H24.1L36.9,94.2H51.8Z" fill="#a9ddf6"/>
    <path id="Trazado_27" d="M66.6,115.5H92.1V124H66.6Z" fill="#d5d5d3"/>
    <path id="Trazado_28" d="M117.6,92.1v17H90a8.493,8.493,0,0,0-8.5,8.5h0v4.2a2.112,2.112,0,0,0,2.1,2.1h34A14.937,14.937,0,0,0,132.5,109V92Z" fill="#f6e8db"/>
    <path id="Trazado_29" d="M119.8,68.7h-8.5a2.051,2.051,0,0,1-2.1-2.1h0V65.4a22.634,22.634,0,0,0,10-13.8,8.515,8.515,0,0,0,.6-16.6V26.2a14.821,14.821,0,0,0-13.6-14.8,9.788,9.788,0,0,0-8.1-4.3h-8A19.1,19.1,0,0,0,71,26.2v6.4a2.051,2.051,0,0,0,2.1,2.1h2.1V35a8.488,8.488,0,0,0-6.1,10.3,8.632,8.632,0,0,0,6.7,6.3l.2.7,4.1-1.1a18.565,18.565,0,0,1-.6-4.8V34.7a52.237,52.237,0,0,0,23.8-7,14.059,14.059,0,0,0,9.1,9.7l3.2,1.1v8a18.074,18.074,0,0,1-18,18.1,18.9,18.9,0,0,1-10.5-3.3l-2.5,3.5a29.038,29.038,0,0,0,3.3,2h0a2.051,2.051,0,0,1-2.1,2.1H83.7V62.5A8.493,8.493,0,0,0,75.2,54H15.6a8.493,8.493,0,0,0-8.5,8.5v6.4h4.3V62.5a4.225,4.225,0,0,1,4.2-4.2H75.1a4.225,4.225,0,0,1,4.2,4.2v38.3a4.225,4.225,0,0,1-4.2,4.2H51.6l2.2-10.2a2.155,2.155,0,0,0-1.6-2.5H36.8a2.087,2.087,0,0,0-2,1.3L30,104.9H15.6a4.225,4.225,0,0,1-4.2-4.2V73H7.1v27.6a8.493,8.493,0,0,0,8.5,8.5H28.2l-5.5,12.8H9.2A2.051,2.051,0,0,0,7.1,124v8.5a2.112,2.112,0,0,0,2.1,2.1H132.5a2.112,2.112,0,0,0,2.1-2.1h0V124a2.112,2.112,0,0,0-2.1-2.1h-3.6a16.93,16.93,0,0,0,5.8-12.8V107h-4.3v2.1a12.889,12.889,0,0,1-12.8,12.8h-34v-4.2a6.511,6.511,0,0,1,6.4-6.4h27.6a2.112,2.112,0,0,0,2.1-2.1v-15h10.6v8.5h4.2V83.6A14.766,14.766,0,0,0,119.8,68.7Zm0-22.3V39.5a4.37,4.37,0,0,1,1.6,5.8,4.6,4.6,0,0,1-1.6,1.6v-.5ZM73,43.2a4.714,4.714,0,0,1,1.2-3,5.5,5.5,0,0,1,.9-.7v7.4A4.124,4.124,0,0,1,73,43.2Zm29.8-20.3a48.852,48.852,0,0,1-26,7.5H75.1V28c18.2-2.4,24.6-8.6,24.9-8.9l-3-3a22.021,22.021,0,0,1-5.3,3.2,62.2,62.2,0,0,1-16.4,4.4,14.192,14.192,0,0,1,1.2-4c8-.2,12.1-2.2,12.3-2.3l-1.9-3.8a24.563,24.563,0,0,1-7.1,1.7,14.825,14.825,0,0,1,10.1-4h8a5.618,5.618,0,0,1,4.8,2.7Zm10.8,10.4a9.576,9.576,0,0,1-6.6-9.2V15.8a10.693,10.693,0,0,1,8.5,10.4v7.7ZM92,68.1a22.185,22.185,0,0,0,13-.6,6.477,6.477,0,0,0,1.8,3.7,3.915,3.915,0,0,0,1,.8l-.6.8a11.173,11.173,0,0,1-15.6,2.3,10.618,10.618,0,0,1-2.7-2.9A6.386,6.386,0,0,0,92,68.1ZM79.4,117.6v4.2H68.7v-4.2Zm-4.5-8.5h.3a7.612,7.612,0,0,0,2.1-.3v4.5H73.2Zm-17,0H70.3l-1.7,4.3h-2a2.051,2.051,0,0,0-2.1,2.1h0v6.4H60.3v-6.4a2.112,2.112,0,0,0-2.1-2.1h-2Zm-7.2,0h2.5l-1.7,4.3H49.7Zm5.3,8.5v4.2H48l.9-4.2ZM38.2,96.4H49l-5.5,25.5H27.3Zm92.2,29.7v4.3H11.3v-4.3Zm0-36.1H119.8V83.6h-4.3V107H90a10.657,10.657,0,0,0-8.5,4.3v-5a8.486,8.486,0,0,0,2.1-5.6V73h.8a15.46,15.46,0,0,0,20.7,6.9,15.7,15.7,0,0,0,5.4-4.5l1.7-2.3h7.4a10.605,10.605,0,0,1,10.6,10.6V90Zm-23.6-6.2,1.9,3.8a23.281,23.281,0,0,1-21.9-.8l2.1-3.7a18.671,18.671,0,0,0,17.9.7Zm-70-15.1H28.3V64.5h8.5Zm12.8-4.2v4.2H41.1V64.5Zm12.7,0v4.2H53.8V64.5Zm12.8,4.2H66.6V64.5h8.5Zm-51-4.2v4.2H15.6V64.5Z" fill="#86b3df"/>
  </g>
</svg>
